<svg width="911" height="192" viewBox="0 0 911 192" fill="none" xmlns="http://www.w3.org/2000/svg">
<rect x="72.5439" y="96.3127" width="39.8451" height="39.8451" rx="8.53824" transform="rotate(-45 72.5439 96.3127)" fill="#FC4733"/>
<path fill-rule="evenodd" clip-rule="evenodd" d="M23.345 72.6554C23.1416 72.8588 22.9506 73.0699 22.7721 73.2878C22.5533 73.4669 22.3414 73.6586 22.1373 73.8627L6.03741 89.9626C2.70302 93.297 2.70302 98.7031 6.03741 102.037L58.3619 154.362C61.6963 157.696 67.1024 157.696 70.4368 154.362L86.5367 138.262C89.8711 134.928 89.8711 129.522 86.5367 126.187L69.6329 109.284L69.6343 109.282L62.3894 102.037C59.0551 98.703 59.055 93.2969 62.3894 89.9625L65.2069 87.1451L65.2059 87.1441L86.5369 65.813C89.8713 62.4786 89.8713 57.0725 86.5369 53.7381L70.4371 37.6383C67.1027 34.3039 61.6966 34.3039 58.3622 37.6383L23.345 72.6554Z" fill="white"/>
<path d="M193.534 104.32C193.534 138.4 215.614 161.6 249.214 161.76C278.654 161.92 298.814 146.4 302.014 119.36H277.854C275.774 134.88 265.534 143.68 249.854 143.68C229.694 143.68 217.694 127.04 217.694 104.32C217.694 81.6 229.694 64.96 249.854 64.96C265.534 64.96 274.334 73.76 277.854 89.28H302.014C298.814 62.08 278.654 46.4 249.214 46.24C215.614 46.08 193.534 70.08 193.534 104.32ZM389.114 160V81.6H367.514V125.6C367.514 139.2 360.954 145.76 351.034 145.76C343.674 145.76 336.634 141.6 336.634 125.6V81.6H315.194V128.8C315.194 153.76 331.194 161.76 344.474 161.76C355.674 161.76 363.994 156.48 367.194 150.4L367.514 160H389.114ZM408.654 81.6V160H430.254V128.96C430.254 104 443.054 100.32 452.334 100.32H460.014V80.96H451.854C441.614 80.96 434.414 85.6 430.254 96.8V81.6H408.654ZM493.409 161.6C508.129 161.6 515.009 154.24 518.529 149.92C518.689 153.44 518.849 157.12 519.329 160H541.409C540.129 153.44 539.809 144.96 539.809 137.6V113.6C539.809 83.36 516.769 80 503.809 80C488.129 80 471.009 84.96 467.809 105.92H489.409C490.529 97.28 499.489 96 504.449 96C511.969 96 518.689 98.88 518.689 108.48V110.08L505.729 110.72C482.209 111.84 464.929 117.44 464.929 136.48C464.929 152.48 477.409 161.6 493.409 161.6ZM498.849 145.28C491.009 145.28 486.209 141.44 486.209 136C486.209 127.52 496.929 125.44 510.049 124.8L518.849 124.32V126.24C518.849 140.96 507.009 145.28 498.849 145.28ZM580.154 160H603.354V143.04H590.394C584.154 143.04 582.554 141.28 582.554 134.72V98.56H603.354V81.6H582.554V58.4H560.954V81.6H547.834V98.56H560.954V139.84C560.954 152.8 569.274 160 580.154 160ZM613.925 48.8V67.52H638.565V48.8H613.925ZM615.525 81.6V160H637.125V81.6H615.525ZM691.342 161.76C715.342 161.76 731.822 146.08 731.822 120.8C731.822 95.52 715.342 79.84 691.342 79.84C667.662 79.84 651.182 95.52 651.182 120.8C651.182 146.08 667.662 161.76 691.342 161.76ZM691.342 144.96C679.182 144.96 672.942 134.24 672.942 120.8C672.942 107.36 679.182 96.64 691.342 96.64C703.502 96.64 709.902 107.36 709.902 120.8C709.902 134.24 703.502 144.96 691.342 144.96ZM745.685 81.6V160H767.285V116C767.285 102.4 773.845 95.84 783.765 95.84C791.125 95.84 798.165 100 798.165 116V160H819.605V112.8C819.605 87.84 803.605 79.84 790.325 79.84C779.125 79.84 770.805 85.12 767.605 91.2L767.285 81.6H745.685ZM871.145 161.92C892.265 161.92 906.985 153.12 906.985 135.52C906.985 118.72 893.545 115.2 869.065 109.92C861.865 108.32 856.425 107.52 856.425 102.56C856.425 97.44 862.825 95.2 869.545 95.2C875.625 95.2 882.025 97.92 882.985 105.76H905.225C902.825 84.8 884.425 79.84 870.025 79.84C850.985 79.84 834.985 87.2 834.985 103.68C834.985 121.76 854.345 124.32 868.425 127.2C878.025 129.12 885.545 130.88 885.545 137.28C885.545 141.92 881.545 146.56 871.305 146.56C862.345 146.56 855.785 142.24 854.505 134.24H832.265C834.025 156.64 855.305 161.92 871.145 161.92Z" fill="white"/>
</svg>
